The River - Magus - S01E01 & Marbeley - S01E02

Info:
Took a little longer than usual but I actually took the time to split this up into 2 files for each episode unlike others. My main objective here was quality rather than time.

Releaser:
r3mnants
 
http://www.shotpix.com/images/19897425267541447996.png 
http://www.shotpix.com/images/61914863637160786581.png

EPISODE 1:
Format                                   : MPEG-4
Format profile                           : Base Media
Codec ID                                 : isom
File size                                : 745 MiB
Duration                                 : 42mn 53s
Overall bit rate mode                    : Variable
Overall bit rate                         : 2429 Kbps

Video
ID                                       : 1
Format                                   : AVC
Format/Info                              : Advanced Video Codec
Format profile                           : High@L4.0
Format settings, CABAC                   : Yes
Format settings, ReFrames                : 3 frames
Codec ID                                 : avc1
Codec ID/Info                            : Advanced Video Coding
Duration                                 : 42mn 53s
Bit rate mode                            : Variable
Bit rate                                 : 2298 Kbps
Maximum bit rate                         : 25.0 Mbps
Width                                    : 1280 pixels
Height                                   : 720 pixels
Display aspect ratio                     : 16:9
Frame rate mode                          : Constant
Frame rate                               : 29.970 fps
Color space                              : YUV
Chroma subsampling                       : 4:2:0
Bit depth                                : 8 bits
Scan type                                : Progressive
Bits/(Pixel*Frame)                       : 0.083
Stream size                              : 705 MiB (95%)
Writing library                          : x264 core 120 r2120 0c7dab9

Audio
ID                                       : 2
Format                                   : AAC
Format/Info                              : Advanced Audio Codec
Format profile                           : LC
Codec ID                                 : 40
Duration                                 : 42mn 53s
Bit rate mode                            : Variable
Bit rate                                 : 128 Kbps
Maximum bit rate                         : 136 Kbps
Channel(s)                               : 2 channels
Channel positions                        : Front: L R
Sampling rate                            : 48.0 KHz
Compression mode                         : Lossy
Stream size                              : 39.3 MiB (5%)
-----------------------------------------------------------------------

EPISODE 2
Format                                   : MPEG-4
Format profile                           : Base Media
Codec ID                                 : isom
File size                                : 702 MiB
Duration                                 : 41mn 57s
Overall bit rate mode                    : Variable
Overall bit rate                         : 2339 Kbps

Video
ID                                       : 1
Format                                   : AVC
Format/Info                              : Advanced Video Codec
Format profile                           : High@L4.0
Format settings, CABAC                   : Yes
Format settings, ReFrames                : 3 frames
Codec ID                                 : avc1
Codec ID/Info                            : Advanced Video Coding
Duration                                 : 41mn 57s
Bit rate mode                            : Variable
Bit rate                                 : 2208 Kbps
Maximum bit rate                         : 25.0 Mbps
Width                                    : 1280 pixels
Height                                   : 720 pixels
Display aspect ratio                     : 16:9
Frame rate mode                          : Constant
Frame rate                               : 29.970 fps
Color space                              : YUV
Chroma subsampling                       : 4:2:0
Bit depth                                : 8 bits
Scan type                                : Progressive
Bits/(Pixel*Frame)                       : 0.080
Stream size                              : 662 MiB (94%)
Writing library                          : x264 core 120 r2120 0c7dab9

Audio
ID                                       : 2
Format                                   : AAC
Format/Info                              : Advanced Audio Codec
Format profile                           : LC
Codec ID                                 : 40
Duration                                 : 41mn 57s
Bit rate mode                            : Variable
Bit rate                                 : 128 Kbps
Maximum bit rate                         : 134 Kbps
Channel(s)                               : 2 channels
Channel positions                        : Front: L R
Sampling rate                            : 48.0 KHz
Compression mode                         : Lossy
Stream size                              : 38.4 MiB (5%)